<svg width="1124" height="300" viewBox="0 0 1124 300" fill="none" xmlns="http://www.w3.org/2000/svg">
<path fill-rule="evenodd" clip-rule="evenodd" d="M97.4681 289.313C85.0186 294.099 89.64 310.494 97.2175 313.039C109.01 316.999 121.166 317.617 132.025 322.497C135.048 323.856 138.981 326.699 140.904 329.475C143.156 332.727 144.33 336.454 148.502 338.105C152.909 339.849 157.948 338.357 160.363 334.118C162.814 329.817 161.212 322.383 158.433 318.645C157.751 317.728 152.751 312.382 152.976 311.987C153.272 311.468 154.717 310.802 155.181 310.386C159.998 306.064 166.226 297.217 160.612 290.945C158.689 288.795 154.73 288.717 153.032 286.82C152.971 286.751 155.488 285.411 155.765 285.247C157.623 284.149 160.038 283.014 161.28 281.178C164.25 276.785 162.805 272.352 159.176 268.875C155.116 264.985 149.103 267.999 145.077 270.222C139.005 273.574 134.411 279.363 128.018 282.137C118.374 286.322 107.072 285.62 97.4681 289.313Z" fill="#95D0D5" fill-opacity="0.5"/>
<path fill-rule="evenodd" clip-rule="evenodd" d="M200.722 243.863C202.948 238.422 204.164 235.348 203.164 228.68C201.233 215.793 184.098 199.724 169.325 206.801C161.522 210.539 159.11 216.537 155.775 223.139C154.015 226.621 153.045 234.889 153.687 238.747C154.453 243.343 155.114 247.398 158.736 251.492C173.649 268.346 196.382 257.112 200.722 243.863Z" fill="#3D3D3D" fill-opacity="0.5"/>
<path d="M195.458 323.793C198.78 323.72 203.526 324.13 205.798 323.056C206.521 322.714 207.6 316.832 207.893 314.882C208.563 310.42 209.146 305.944 209.668 301.462C210.341 295.68 209.765 276.31 206.722 274.229C202.392 271.27 180.716 270.462 176.67 272.254C176.148 272.485 175.624 272.761 175.218 273.163C171.719 276.629 178.129 280.735 180.268 282.331L181.215 283.015C181.854 283.464 182.504 283.896 183.154 284.328C183.273 284.407 186.417 285.901 185.978 286.793C185.53 287.706 183.74 288.826 183.029 289.257C179.459 291.423 177.429 292.137 174.336 294.975C173.756 295.508 172.708 297.5 173.001 298.628C174.434 304.142 184.808 308.231 183.914 309.46C181.175 313.228 176.777 315.582 173.748 319.142C173.285 319.685 172.448 321.052 173.04 321.905C173.758 322.938 175.938 323.417 176.916 323.532C183.351 324.288 188.794 323.941 195.458 323.793Z" fill="#870606" fill-opacity="0.8"/>
<path d="M279.85 350.32C273.923 353.13 267.249 353.975 260.836 355.011C256.369 355.733 250.396 355.914 247.84 359.945C247.313 361.09 246.63 361.891 246.308 363.159C245.896 364.776 245.644 365.886 246.036 367.548C246.695 370.338 248.556 372.795 248.562 375.745C248.565 377.337 248.707 378.824 247.967 380.299C247.089 382.049 246.153 383.261 244.397 384.123C242.546 385.033 240.316 384.525 238.457 383.925C235.919 383.105 233.071 381.923 230.843 380.477C227.932 378.586 225.774 375.763 222.764 374.03C220.209 372.559 217.217 371.637 214.433 370.68C211.831 369.786 208.913 369.378 206.479 368.093C204.729 367.169 204.186 365.651 203.438 363.877C201.734 359.837 201.253 355.084 202.198 350.759C202.626 348.803 203.619 347.18 204.838 345.609C206.95 342.887 209.112 340.209 211.208 337.48C213.084 335.037 214.635 332.315 216.132 329.633C217.756 326.721 219.295 323.378 220.184 320.158C221.837 314.164 222.893 307.67 226.605 302.48C228.484 299.853 232.469 298.395 235.606 298.214C238.941 298.022 241.674 299.336 244.363 301.202C247.881 303.644 250.51 306.745 252.955 310.211C254.285 312.096 255.505 314.056 256.669 316.047C257.581 317.608 258.413 319.265 259.578 320.659C261.611 323.091 264.466 324.759 267.5 325.646C268.936 326.066 270.326 326.608 271.764 327.023C273.019 327.385 274.315 327.677 275.509 328.215C277.869 329.277 280.023 330.749 282.391 331.804C284.866 332.907 286.496 335.363 286.569 338.064C286.637 340.604 286.152 342.605 285.334 344.985C284.924 346.179 284.199 347.453 283.317 348.372C282.451 349.273 280.962 349.793 279.85 350.32Z" fill="#3D3D3D" fill-opacity="0.5"/>
<path d="M449.658 222.315C452.386 228.07 453.206 234.549 454.213 240.776C454.914 245.113 455.089 250.912 459.003 253.394C460.115 253.906 460.892 254.568 462.123 254.882C463.693 255.282 464.771 255.526 466.385 255.145C469.093 254.505 471.479 252.698 474.343 252.693C475.889 252.69 477.333 252.552 478.765 253.27C480.464 254.123 481.641 255.032 482.478 256.736C483.36 258.534 482.868 260.699 482.285 262.504C481.489 264.968 480.342 267.733 478.937 269.896C477.102 272.722 474.361 274.818 472.678 277.74C471.25 280.221 470.355 283.126 469.426 285.829C468.558 288.356 468.162 291.188 466.913 293.552C466.016 295.25 464.543 295.778 462.821 296.504C458.898 298.158 454.283 298.626 450.084 297.708C448.185 297.293 446.609 296.328 445.084 295.145C442.441 293.094 439.84 290.995 437.191 288.96C434.819 287.139 432.177 285.633 429.573 284.18C426.746 282.602 423.5 281.108 420.373 280.246C414.553 278.641 408.248 277.615 403.21 274.011C400.659 272.187 399.243 268.318 399.068 265.272C398.881 262.033 400.156 259.38 401.968 256.77C404.339 253.354 407.35 250.801 410.716 248.427C412.546 247.137 414.449 245.951 416.382 244.822C417.897 243.936 419.506 243.129 420.859 241.998C423.221 240.024 424.84 237.252 425.701 234.306C426.109 232.912 426.636 231.562 427.039 230.166C427.39 228.948 427.673 227.689 428.195 226.53C429.227 224.239 430.656 222.147 431.68 219.848C432.751 217.445 435.136 215.862 437.758 215.792C440.224 215.726 442.167 216.197 444.478 216.99C445.637 217.388 446.874 218.092 447.766 218.949C448.641 219.789 449.146 221.236 449.658 222.315Z" fill="#95D0D5" fill-opacity="0.5"/>
<path fill-rule="evenodd" clip-rule="evenodd" d="M473.823 325.326C474.817 329.713 463.497 339.529 460.466 342.697C456.048 347.316 456.056 347.287 451.714 352.001C448.5 355.491 445.262 359.475 441.37 362.263C440.296 363.033 437.418 364.701 436.709 365.116C432.752 367.437 428.12 370.138 423.324 369.678C420.083 369.367 418.722 365.828 418.191 363.099C416.914 356.541 419.967 350.089 424.386 345.318C426.806 342.704 429.71 340.735 432.532 338.575C433.297 337.989 434.045 337.38 434.804 336.785C435.145 336.517 435.497 336.263 435.83 335.986C436.047 335.806 436.271 335.631 436.452 335.417C436.527 335.329 436.687 335.146 436.583 335.099C436.11 334.885 435.569 334.862 435.055 334.785C433.131 334.499 430.357 334.36 428.587 334.153C427.18 333.989 425.005 333.559 423.672 333.138C421.921 332.584 420.169 332.019 418.472 331.319C416.773 330.618 415.135 329.78 413.501 328.941C412.729 328.546 411.993 328.085 411.262 327.62C408.091 325.602 404.275 322.438 404.651 318.252C405.088 313.391 410.774 311.194 414.937 310.495C416.362 310.256 417.794 310.043 419.234 309.939C432.94 308.943 446.355 313.215 458.957 318.002C460.717 318.671 473.198 322.573 473.823 325.326Z" fill="#870606" fill-opacity="0.8"/>
<path d="M249.251 249.391C244.704 253.466 240.437 256.959 237.851 262.539C237.352 263.796 235.942 265.164 234.734 265.821C232.777 266.883 231.08 268.035 228.727 267.457C227.008 267.035 225.465 266.118 224.809 264.38C223.568 261.097 222.284 257.922 222.487 254.299C222.636 251.627 222.667 248.849 222.52 246.179C222.35 243.075 223.665 240.106 223.414 237.035C223.22 234.673 223.017 231.917 222.142 229.705C221.118 227.119 219.87 225.149 218.309 222.878C216.948 220.896 216.5 218.743 215.388 216.682C214.207 214.493 213.418 211.98 212.638 209.626C211.802 207.099 211.817 204.306 211.708 201.664C211.589 198.793 212.414 196.651 213.556 194.072C214.894 191.051 217.281 189.105 219.678 186.957C221.899 184.967 224.663 183.214 227.432 182.108C233.411 179.721 239.505 181.07 244.642 184.857C246.16 185.975 247.341 187.504 248.592 188.9C249.842 190.295 251.23 191.641 252.18 193.268C253.808 196.059 254.738 198.97 254.977 202.2C255.582 210.371 249.168 217.325 250.675 225.474C251.205 228.341 252.705 229.988 254.16 232.36C255.5 234.544 256.126 237.876 255.518 240.373C254.52 244.469 252.338 246.625 249.251 249.391Z" fill="#870606" fill-opacity="0.8"/>
<path d="M390.49 318.108C388.494 324.204 386.447 329.623 387.022 336.056C387.228 337.461 386.663 339.447 385.909 340.679C384.688 342.673 383.749 344.612 381.308 345.324C379.524 345.844 377.642 345.82 376.134 344.585C373.286 342.251 370.455 340.039 368.74 336.638C367.475 334.129 366.047 331.587 364.514 329.236C362.733 326.503 362.372 323.111 360.533 320.451C359.119 318.405 357.49 316.004 355.535 314.453C353.25 312.64 351.083 311.504 348.474 310.259C346.197 309.172 344.662 307.451 342.571 306.16C340.35 304.79 338.316 302.92 336.374 301.189C334.289 299.331 332.839 296.782 331.355 294.438C329.741 291.889 329.369 289.508 329.055 286.562C328.687 283.111 329.837 280.087 330.889 276.874C331.864 273.898 333.457 270.85 335.394 268.39C339.576 263.077 345.822 261.1 352.475 261.845C354.44 262.064 356.316 262.834 358.184 263.446C360.051 264.058 362.018 264.552 363.734 265.533C366.676 267.215 369.048 269.373 370.958 272.184C375.79 279.297 373.607 288.993 379.248 295.611C381.232 297.939 383.458 298.649 386.024 300.041C388.387 301.323 390.702 304.024 391.458 306.614C392.699 310.864 391.845 313.971 390.49 318.108Z" fill="#3D3D3D" fill-opacity="0.5"/>
<path d="M287.052 255.256C288.278 255.627 290.238 250.63 291.749 252.124C291.964 252.336 292.451 253.216 292.536 253.522C292.684 254.051 292.831 256.251 293.627 256.133C295.652 255.835 295.032 252.055 297.94 253.426C298.22 253.558 298.561 253.714 298.785 253.936C300.464 255.595 298.157 258.589 300.293 259.794C302.53 261.055 303.495 256.973 305.762 258.787C306.996 259.773 307.51 261.671 307.519 263.171C307.521 263.655 307.307 265.225 307.813 265.599C309.086 266.543 310.644 264.678 311.666 264.296C312.647 263.93 313.991 264.796 314.505 265.615C316.2 268.316 313.113 271.08 313.826 273.632C314.047 274.425 315.671 274.043 316.238 274.111C317.34 274.244 318.408 275.163 318.754 276.179C319.213 277.531 317.711 279.694 316.554 280.278C315.509 280.806 314.369 280.831 314.203 282.228C313.98 284.088 317.874 284.198 318.155 286.088C318.379 287.59 316.688 289.753 315.324 290.214C314.22 290.587 313.031 290.359 312.313 291.326C310.773 293.4 313.874 294.783 314.354 296.503C314.507 297.051 314.853 297.597 314.434 298.161C313.825 298.982 313.45 299.737 312.387 300.134C311.096 300.616 309.116 300.101 308.112 301.299C307.476 302.057 308.179 303.002 308.477 303.75C309.093 305.298 310.09 307.621 308.413 308.937C305.955 310.866 304.362 306.562 302.184 307.985C300.917 308.813 300.532 309.999 300.285 311.405C300.082 312.556 300.295 314.102 298.852 314.59C295.651 315.672 294.991 309.961 292.272 309.48C290.318 309.135 289.821 310.783 289.34 312.251C289.161 312.798 288.835 313.866 288.109 313.869C286.346 313.877 286.493 312.888 286.201 311.611C285.912 310.347 285.237 308.935 284.006 308.327C281.654 307.167 280.704 310.31 278.801 310.431C275.51 310.64 276.986 305.748 275.212 304.747C274.472 304.33 273.222 304.092 272.52 304.643C271.955 305.086 271.524 306.213 270.681 306.217C268.603 306.227 268.58 304.812 268.718 303.319L268.835 301.959C268.861 301.315 268.799 300.741 268.471 300.363C267.604 299.363 266.314 300.156 265.314 300.494C264.376 300.811 263.455 300.538 262.69 299.946C259.024 297.111 264.758 295.893 264.419 293.795C263.898 290.561 257.484 295.791 257.032 291.356C256.898 290.039 261.384 287.147 261.43 285.925C261.482 284.539 257.055 284.34 257.118 281.867C257.183 279.284 262.604 280.983 262.798 278.266C262.969 275.867 260.424 275.977 259.487 274.193C258.851 272.984 259.106 271.7 259.706 270.985C261.12 269.298 263.715 270.312 264.918 268.183C266.507 265.371 262.175 263.149 264.78 260.521C266.811 258.472 269.699 262.137 271.492 259.999C273.165 258.003 269.705 254.283 272.317 252.962C272.924 252.656 273.467 253.083 273.981 253.351C275.255 254.017 276.424 255.629 277.926 255.81C280.281 256.092 280.512 254.572 281.114 252.734C281.332 252.066 281.638 250.564 282.622 250.507C284.36 250.408 285.018 251.532 285.535 252.55C285.834 253.141 286.347 255.043 287.052 255.256Z" fill="#95D0D5" fill-opacity="0.5"/>
<path fill-rule="evenodd" clip-rule="evenodd" d="M880.362 341.246C888.629 330.78 876.292 319.034 868.477 320.71C856.313 323.319 845.542 328.986 833.712 330.327C830.419 330.7 825.586 330.261 822.516 328.853C818.92 327.205 816.01 324.598 811.579 325.305C806.899 326.053 803.325 329.906 803.41 334.784C803.495 339.734 808.664 345.311 812.962 347.109C814.016 347.55 821.043 349.598 821.051 350.053C821.061 350.651 820.158 351.96 819.971 352.555C818.032 358.729 817.188 369.515 825.215 372.048C827.966 372.915 831.41 370.964 833.839 371.73C833.926 371.757 832.445 374.193 832.291 374.476C831.252 376.369 829.754 378.576 829.622 380.789C829.307 386.082 832.812 389.159 837.707 390.299C843.183 391.574 846.817 385.915 849.147 381.949C852.66 375.969 853.659 368.646 857.743 363C863.905 354.481 873.984 349.321 880.362 341.246Z" fill="#95D0D5" fill-opacity="0.5"/>
<path fill-rule="evenodd" clip-rule="evenodd" d="M719.448 260.51C718.671 259.835 717.202 258.037 717.45 257.249L718.461 254.036C719.336 251.257 719.917 248.398 720.789 245.628C721.071 244.732 721.272 243.323 722.346 243.209C724.183 243.015 725.729 245.185 726.835 246.146C728.93 247.966 732.748 250.459 735.661 250.724C740.549 251.169 743.877 247.293 749.008 248.277C756.306 249.677 756.525 253.775 762.006 256.039C764.042 256.879 766.341 257.386 768.479 256.968C771.154 256.445 773.561 254.691 776.549 255.353C780.49 256.227 782.722 260.331 786.843 261.086C790.191 261.7 792.649 260.321 795.621 262.533C796.056 262.857 796.515 263.243 796.502 263.78C796.445 266.064 795.254 268.502 794.577 270.653C794.109 272.14 793.858 273.696 793.387 275.195C793.073 276.192 792.548 277.101 792.237 278.088C790.595 283.306 786.876 279.651 783.926 277.688C781.935 276.363 779.679 274.735 777.417 273.839C772.775 271.999 768.274 274.612 763.54 273.418C761.146 272.815 758.47 271.939 756.516 270.446C753.514 268.15 750.915 265.442 746.993 264.54C741.171 263.201 739.085 265.412 734.102 266.299C730.02 267.026 722.453 263.12 719.448 260.51Z" fill="#3D3D3D" fill-opacity="0.5"/>
<path fill-rule="evenodd" clip-rule="evenodd" d="M526.44 270.547C527.458 271.733 535.308 276.033 538.427 278.272C547.783 284.988 553.544 290.108 552.371 294.773C551.819 296.966 547.603 303.24 545.938 304.881C537.094 313.6 527.731 306.499 519.64 301.35C516.911 299.613 511.049 294.491 507.917 296.637C505.164 298.524 497.403 309.282 497.651 312.604C497.773 314.225 504.227 318.744 505.601 319.775C512.866 325.228 519.817 329.703 528.341 332.534C531.702 333.651 537.634 336.414 541.341 335.837C548.358 334.746 555.939 326.039 560.224 320.706C565.855 313.698 572.25 306.975 575.478 298.657C579.091 289.349 582.37 283.76 576.792 275.563C575.373 273.477 568.659 267.44 566.636 265.877C558.973 259.957 549.256 253.807 539.843 251.468C538.429 251.116 537.369 253.372 536.792 254.28C536.268 255.102 525.787 269.786 526.44 270.547Z" fill="#3D3D3D" fill-opacity="0.5"/>
<path d="M837.072 312.621C837.772 311.267 839.443 309.688 838.723 307.852C838.473 307.216 838.124 306.839 837.726 306.409L837.678 306.357C835.876 304.408 833.904 303.041 831.358 302.187C829.748 301.648 828.163 300.949 826.553 300.442C824.483 299.79 822.27 299.371 820.156 298.873C816.914 298.109 813.851 297.141 810.506 296.762L810.312 296.739C806.39 296.295 802.514 295.856 798.647 295.035C794.219 294.096 789.889 294.354 785.398 294.062C782.949 293.902 780.508 293.719 778.055 293.596C776.028 293.494 774.055 293.018 772.035 292.873C770.052 292.731 767.944 292.53 765.97 292.795C763.917 293.071 761.894 293.518 759.848 293.832C757.921 294.129 755.99 294.402 754.067 294.727C752.831 294.937 751.566 294.861 750.321 294.994C749.508 295.081 747.559 295.304 748.331 296.629C749.017 297.808 750.111 298.673 751.394 299.129C752.351 299.47 753.354 299.643 754.317 299.963C755.608 300.393 756.694 301.26 757.918 301.839C760.476 303.052 763.711 302.707 766.48 303.039C770.542 303.526 774.62 303.984 778.709 304.161C782.429 304.322 786.467 304.079 790.108 304.933C790.634 305.056 795.015 306.224 792.804 306.534C791.269 306.75 789.689 306.736 788.138 306.892C787.368 306.969 786.595 306.972 785.823 307.072C784.517 307.241 783.396 307.601 782.14 307.926C780.423 308.37 778.631 308.408 776.965 309.048C775.635 309.56 774.24 310.105 772.997 310.799C771.415 311.683 770.131 313.031 769.069 314.474C768.334 315.472 766.738 316.231 766.68 317.568C766.56 320.356 770.396 318.561 771.881 318.492C774.967 318.347 777.929 317.42 781.015 317.244C782.825 317.14 784.641 317.215 786.448 317.076C788.967 316.882 791.338 316.489 793.814 315.987C796.292 315.485 798.66 315.02 801.199 314.882C803.589 314.753 805.988 314.829 808.38 314.799C813.093 314.74 817.795 314.875 822.506 314.631C825.876 314.457 829.303 314.033 832.678 314.048C833.761 314.052 834.911 314.08 835.979 313.867C836.624 313.739 836.783 313.182 837.072 312.621Z" fill="#95D0D5" fill-opacity="0.5"/>
<path d="M636.741 249.414C639.138 248.822 641.349 248.386 643.78 248.088C651.047 247.197 657.268 250.217 662.13 255.683C663.977 257.759 667.951 259.403 670.516 260.287C675.836 262.12 681.187 264.986 687.034 264.807C692.331 264.645 701.962 256.651 706.996 258.235C710.074 259.204 711.843 260.592 714.233 262.696C717.52 265.589 716.279 269.931 714.505 273.356C711.767 278.645 706.946 284.11 707.201 290.606C707.338 294.078 711.12 295.641 714.128 295.746C718.076 295.884 722.66 293.776 726.308 292.473C730.283 291.052 734.604 290.632 738.195 293.377C741.245 295.707 744.055 298.117 742.752 302.257C741.497 306.244 737.914 310.64 734.525 313.08C730.668 315.857 726.938 319.205 722.283 320.651C717.926 322.004 712.681 322.883 708.356 321.045C701.226 318.015 694.317 314.564 687.387 311.098C682.826 308.817 679.163 304.831 674.556 302.597C671.313 301.024 668.17 298.855 665.123 296.911C661.9 294.855 659.182 292.519 655.479 291.353C651.458 290.088 647.594 289.144 643.446 288.439C639.739 287.809 634.572 287.985 630.944 288.87C627.265 289.766 623.253 290.392 619.788 291.907C614.445 294.242 608.679 295.031 603.364 291.88C596.221 287.644 601.001 280.952 603.96 275.138C606.029 271.072 609.373 268.402 612.651 265.237C616.49 261.53 620.763 257.951 624.957 254.679C628.514 251.902 632.41 250.483 636.741 249.414Z" fill="#870606" fill-opacity="0.8"/>
<path fill-rule="evenodd" clip-rule="evenodd" d="M889.525 274.11C889.641 274.108 888.988 276.44 888.733 276.595C887.979 277.05 887.142 277.048 886.343 277.362C884.504 278.084 880.19 281.77 880.079 284.35C879.793 290.973 880.728 294.61 881.041 301.151C881.095 302.296 882.536 307.685 880.35 307.039C878.482 306.487 878.113 304.626 876.834 303.58C872.705 300.205 871.181 297.071 869.562 292.128C868.859 289.983 867.276 288.394 867.81 286.222C868.352 284.016 872.469 280.415 873.744 278.123C874.169 277.36 876.123 276.071 875.269 275.144C874.904 274.747 872.343 276.107 871.994 276.221C871.111 276.508 870.221 276.755 869.339 277.063C867.791 277.605 866.249 278.167 864.728 278.779C862.364 279.729 859.95 280.312 857.636 281.344C856.594 281.809 855.026 282.953 854.554 283.996C852.787 287.904 855.981 299.623 857.463 303.528C857.932 304.762 857.731 305.908 857.919 307.115C857.957 307.357 858.554 309.431 858.428 309.487C857.824 309.756 856.468 309.206 855.921 308.943C849.648 305.936 851.919 303.941 848.687 298.624C847.788 297.144 842.806 288.66 842.554 287.046C842.213 284.857 843.531 281.567 844.27 279.636C846.175 274.662 850.34 271.963 855.063 270.181C856.793 269.529 858.749 269.076 860.383 268.235C860.552 268.149 861.998 267.354 861.909 267.257C861.632 266.956 858.852 267.803 858.391 267.888C855.76 268.375 853.065 268.689 850.549 269.638C849.19 270.151 847.947 270.949 846.546 271.38C837.025 274.315 827.511 277.695 817.666 279.358C815.277 279.762 813.018 280.482 810.615 280.968C805.235 282.058 797.789 281.328 797.281 280.776C797.168 280.653 798.526 278.436 798.685 278.365C800.999 277.333 803.515 277.178 805.69 275.795C806.882 275.038 808.25 274.539 809.442 273.782C812.65 271.742 815.638 269.145 819.134 267.587C821.065 266.726 823.884 267.091 825.981 266.664C828.855 266.077 831.585 265.004 834.455 264.419C837.456 263.807 839.789 262.383 842.611 261.464C843.477 261.182 844.445 260.766 845.353 260.625C845.764 260.561 846.104 260.439 846.5 260.326C846.588 260.301 846.857 260.255 846.765 260.251C842.719 260.076 838.655 260.27 834.563 259.898C825.336 259.06 816.464 256.245 807.162 255.844C806.578 255.819 796.513 254.18 796.245 253.197C795.898 251.922 799.268 250.674 799.536 250.554C800.88 249.955 806.122 250.438 807.593 249.883C811.277 248.493 816.725 248.05 820.743 248.511C824.35 248.925 828.04 248.796 831.608 249.502C835.363 250.245 839.192 250.558 842.974 251.037C843.726 251.132 844.474 251.189 845.235 251.221C845.729 251.243 846.695 251.778 846.716 251.285C846.733 250.876 843.822 249.452 843.488 249.232C840.58 247.316 838.079 244.513 835.23 242.436C830.219 238.783 825.37 234.727 820.27 231.173C818.873 230.2 816.171 228.095 815.001 226.822C813.002 224.649 809.809 220.948 810.432 219.174C810.889 217.873 816.138 220.328 818.108 221.625C819.298 222.408 823.103 224.151 824.202 225.05C826.333 226.792 827.608 227.121 829.785 229.06C832.444 231.427 836.217 232.888 839.32 234.606C841.683 235.914 843.844 237.511 846.207 238.819C849.274 240.517 851.475 244.003 854.178 246.212C854.37 246.369 856.541 248.389 856.708 248.236C857.077 247.899 855.225 246.036 855.068 245.815C853.469 243.573 852.247 240.798 850.849 238.41C849.569 236.222 848.031 234.226 847.029 231.893C846.455 230.556 844.762 226.084 845.609 224.539C846.674 222.599 851.347 219.579 853.073 218.809C854.149 218.33 858.165 216.58 858.565 217.471C858.816 218.031 855.616 221.182 855.819 221.89C856.364 223.787 856.988 224.968 858.301 227.506C859.229 229.301 860.549 231.375 861.371 233.208C863.591 238.158 866.355 242.798 868.777 247.625C870.258 250.576 872.213 253.185 873.826 256.023C873.898 256.152 875.544 258.304 875.75 257.934C876.642 256.332 874.466 250.072 873.977 248.459C872.408 243.284 872.524 239.558 872.007 236.833C871.263 232.915 866.744 229.172 866.752 227.471C866.763 225.352 875.329 228.759 876.943 231.377C881.111 238.133 887.6 250.683 889.172 258.339C889.487 259.874 890.556 261.402 890.889 263.025C891.407 265.546 889.651 271.206 889.525 274.11Z" fill="#870606" fill-opacity="0.8"/>
<path d="M1110.28 237.633C1109.81 240.419 1109.37 243.093 1109.91 245.911C1110.54 249.227 1113.05 257.536 1115.68 259.552C1122.47 264.776 1133.17 266.003 1140.92 263.25C1144.57 261.955 1148.3 260.751 1152.13 260.102C1156.27 259.4 1159.34 257.022 1161.7 253.56C1162.9 251.797 1162.96 249.568 1162.86 247.522C1162.76 245.301 1162.63 243.248 1162.05 241.081C1161.45 238.801 1160.58 236.342 1159.25 234.371C1157.71 232.086 1155.8 229.961 1154.06 227.816C1147.93 220.213 1140.45 211.918 1130.51 209.775C1128.82 209.413 1125.72 208.991 1124.24 210.024C1123.14 210.782 1122.12 211.664 1121.19 212.611C1118.3 215.582 1116.43 218.679 1114.88 222.534C1114.03 224.648 1112.91 226.667 1112.27 228.864C1111.44 231.744 1110.78 234.675 1110.28 237.633Z" fill="#870606" fill-opacity="0.8"/>
<path fill-rule="evenodd" clip-rule="evenodd" d="M971.399 279.168C968.079 274.315 966.181 271.609 960.064 268.775C948.239 263.298 925.394 268.765 923.176 284.995C922.004 293.568 925.685 298.882 929.364 305.299C931.303 308.684 937.673 314.043 941.248 315.629C945.507 317.519 949.257 319.197 954.668 318.425C976.947 315.245 980.074 290.082 971.399 279.168Z" fill="#3D3D3D" fill-opacity="0.5"/>
<path d="M1035.25 327.541C1037.01 324.727 1039.97 320.989 1040.32 318.501C1040.43 317.709 1036.11 313.572 1034.65 312.254C1031.29 309.24 1027.87 306.291 1024.42 303.389C1019.96 299.645 1003.47 289.469 1000.06 290.866C995.203 292.852 982.602 310.509 981.872 314.873C981.778 315.436 981.721 316.025 981.833 316.586C982.803 321.414 989.757 318.32 992.267 317.413L993.359 316.999C994.085 316.712 994.804 316.407 995.522 316.101C995.654 316.045 998.631 314.242 999.135 315.1C999.65 315.977 999.601 318.087 999.57 318.918C999.414 323.091 998.893 325.178 999.562 329.323C999.688 330.101 1000.77 332.072 1001.88 332.448C1007.27 334.285 1016.39 327.872 1016.93 329.294C1018.57 333.655 1018.11 338.622 1019.42 343.111C1019.62 343.796 1020.3 345.247 1021.34 345.221C1022.59 345.19 1024.19 343.633 1024.83 342.88C1029 337.923 1031.7 333.186 1035.25 327.541Z" fill="#870606" fill-opacity="0.8"/>
<path d="M1103.83 271.665C1102.92 278.161 1099.95 284.198 1097.29 290.124C1095.43 294.251 1092.3 299.338 1094.25 303.69C1094.92 304.761 1095.21 305.771 1096.1 306.738C1097.22 307.972 1098.01 308.793 1099.61 309.38C1102.3 310.364 1105.38 310.162 1107.85 311.78C1109.18 312.654 1110.5 313.353 1111.32 314.782C1112.3 316.478 1112.8 317.927 1112.55 319.868C1112.29 321.914 1110.64 323.497 1109.12 324.719C1107.04 326.387 1104.48 328.115 1102.05 329.179C1098.87 330.57 1095.32 330.819 1092.22 332.379C1089.59 333.703 1087.17 335.694 1084.84 337.493C1082.66 339.174 1080.72 341.386 1078.3 342.711C1076.57 343.664 1075 343.282 1073.11 342.931C1068.8 342.131 1064.56 339.918 1061.47 336.748C1060.07 335.316 1059.27 333.593 1058.62 331.711C1057.51 328.45 1056.47 325.171 1055.34 321.919C1054.33 319.009 1052.91 316.216 1051.5 313.491C1049.96 310.532 1048.02 307.407 1045.81 304.894C1041.72 300.215 1036.88 295.76 1034.59 289.806C1033.43 286.791 1034.4 282.662 1035.98 279.943C1037.65 277.051 1040.25 275.492 1043.29 274.274C1047.26 272.679 1051.3 272.19 1055.54 272.056C1057.85 271.983 1060.15 272.042 1062.46 272.166C1064.26 272.263 1066.1 272.48 1067.91 272.274C1071.06 271.914 1074.02 270.448 1076.43 268.402C1077.57 267.434 1078.79 266.572 1079.93 265.599C1080.92 264.751 1081.88 263.829 1082.98 263.128C1085.17 261.742 1087.58 260.752 1089.77 259.356C1092.05 257.896 1095 257.886 1097.29 259.311C1099.45 260.652 1100.85 262.158 1102.39 264.15C1103.16 265.149 1103.83 266.455 1104.11 267.698C1104.39 268.916 1104 270.447 1103.83 271.665Z" fill="#3D3D3D" fill-opacity="0.5"/>
<path d="M1090.37 59.4416C1096.67 60.3293 1102.54 63.2097 1108.29 65.7951C1112.3 67.596 1117.23 70.6406 1121.46 68.7378C1122.5 68.0907 1123.48 67.8063 1124.42 66.9506C1125.62 65.8592 1126.41 65.0939 1126.98 63.5366C1127.94 60.9231 1127.74 57.9367 1129.32 55.5419C1130.16 54.2498 1130.84 52.9683 1132.23 52.1678C1133.88 51.2178 1135.28 50.7352 1137.17 50.9741C1139.15 51.2261 1140.69 52.8284 1141.88 54.3084C1143.5 56.3291 1145.18 58.8081 1146.21 61.1706C1147.56 64.2586 1147.8 67.7003 1149.31 70.7132C1150.6 73.2711 1152.53 75.6164 1154.28 77.8795C1155.91 79.9946 1158.06 81.8838 1159.35 84.2266C1160.27 85.9101 1159.9 87.4303 1159.56 89.2682C1158.78 93.4539 1156.63 97.5652 1153.56 100.567C1152.17 101.923 1150.49 102.709 1148.67 103.331C1145.5 104.41 1142.32 105.427 1139.16 106.52C1136.33 107.498 1133.62 108.876 1130.98 110.251C1128.1 111.744 1125.07 113.632 1122.63 115.769C1118.09 119.745 1113.76 124.446 1107.98 126.67C1105.05 127.797 1101.04 126.85 1098.4 125.321C1095.6 123.695 1094.08 121.17 1092.9 118.221C1091.35 114.362 1090.88 110.443 1090.75 106.326C1090.68 104.088 1090.73 101.847 1090.85 99.6116C1090.95 97.8586 1091.16 96.0707 1090.96 94.3187C1090.61 91.2606 1089.19 88.3835 1087.2 86.0438C1086.26 84.9361 1085.42 83.7536 1084.48 82.649C1083.65 81.6855 1082.76 80.7564 1082.08 79.6825C1080.73 77.5603 1079.77 75.2163 1078.42 73.0964C1077 70.88 1076.99 68.0175 1078.37 65.7892C1079.67 63.6934 1081.14 62.3306 1083.07 60.8372C1084.04 60.0883 1085.31 59.4431 1086.52 59.1695C1087.7 58.9012 1089.18 59.2752 1090.37 59.4416Z" fill="#95D0D5" fill-opacity="0.5"/>
<path d="M1002.71 241.686C1003.62 247.725 1004.18 253.21 1007.42 258.439C1008.2 259.547 1008.56 261.478 1008.45 262.848C1008.26 265.066 1008.29 267.117 1006.51 268.765C1005.21 269.968 1003.6 270.751 1001.78 270.343C998.359 269.573 995.001 268.898 992.088 266.736C989.938 265.141 987.635 263.587 985.326 262.24C982.64 260.675 980.884 257.942 978.182 256.463C976.103 255.325 973.689 253.978 971.361 253.492C968.638 252.924 966.307 252.882 963.551 252.936C961.147 252.983 959.103 252.173 956.77 251.967C954.292 251.748 951.76 251.025 949.365 250.381C946.795 249.689 944.471 248.14 942.205 246.778C939.742 245.297 938.408 243.43 936.882 241.057C935.095 238.278 934.784 235.213 934.309 232.03C933.869 229.081 933.926 225.808 934.526 222.887C935.822 216.582 940.302 212.234 946.29 210.029C948.059 209.377 949.986 209.231 951.84 208.955C953.693 208.679 955.58 208.26 957.461 208.362C960.687 208.538 963.63 209.363 966.459 210.94C973.615 214.931 975.893 224.113 983.527 227.339C986.212 228.473 988.412 228.127 991.194 228.216C993.755 228.299 996.882 229.61 998.632 231.491C1001.5 234.578 1002.1 237.587 1002.71 241.686Z" fill="#870606" fill-opacity="0.8"/>
<path d="M1137.8 161.554C1141.8 166.575 1145.19 171.265 1150.88 174.325C1152.17 174.926 1153.52 176.489 1154.13 177.797C1155.12 179.914 1156.23 181.765 1155.48 184.195C1154.93 185.97 1153.88 187.529 1152.02 188.108C1148.5 189.203 1145.09 190.35 1141.31 189.911C1138.52 189.587 1135.61 189.38 1132.8 189.367C1129.54 189.351 1126.51 187.786 1123.28 187.857C1120.79 187.912 1117.89 187.952 1115.52 188.731C1112.75 189.642 1110.61 190.827 1108.13 192.32C1105.97 193.623 1103.69 193.958 1101.46 194.994C1099.1 196.094 1096.42 196.764 1093.9 197.434C1091.2 198.152 1088.28 197.961 1085.5 197.911C1082.49 197.855 1080.29 196.856 1077.66 195.498C1074.58 193.907 1072.68 191.283 1070.58 188.636C1068.63 186.184 1066.96 183.177 1065.97 180.206C1063.84 173.791 1065.62 167.488 1069.91 162.342C1071.17 160.822 1072.85 159.679 1074.38 158.456C1075.92 157.233 1077.42 155.862 1079.18 154.969C1082.2 153.438 1085.31 152.645 1088.71 152.597C1097.31 152.475 1104.2 159.633 1112.83 158.564C1115.87 158.188 1117.69 156.719 1120.26 155.342C1122.63 154.074 1126.16 153.627 1128.74 154.421C1132.97 155.723 1135.1 158.146 1137.8 161.554Z" fill="#3D3D3D" fill-opacity="0.5"/>
<path d="M1028.41 213.348C1029.39 212.528 1026.3 208.142 1028.38 207.702C1028.67 207.64 1029.68 207.717 1029.98 207.814C1030.5 207.982 1032.42 209.069 1032.76 208.34C1033.62 206.485 1030.13 204.923 1032.87 203.249C1033.14 203.088 1033.45 202.889 1033.76 202.824C1036.07 202.335 1037.3 205.908 1039.48 204.788C1041.77 203.614 1038.89 200.562 1041.65 199.667C1043.15 199.18 1045.02 199.794 1046.28 200.612C1046.69 200.876 1047.88 201.918 1048.47 201.702C1049.96 201.158 1049.26 198.831 1049.5 197.768C1049.74 196.747 1051.2 196.101 1052.16 196.123C1055.35 196.194 1055.96 200.292 1058.49 201.101C1059.27 201.352 1059.84 199.787 1060.21 199.35C1060.93 198.503 1062.28 198.117 1063.32 198.387C1064.71 198.747 1065.68 201.192 1065.54 202.479C1065.4 203.642 1064.8 204.608 1065.87 205.516C1067.3 206.724 1069.54 203.534 1071.27 204.339C1072.65 204.978 1073.52 207.58 1073.16 208.972C1072.86 210.101 1072.02 210.967 1072.43 212.099C1073.31 214.526 1076.17 212.697 1077.87 213.243C1078.42 213.416 1079.06 213.428 1079.3 214.089C1079.65 215.049 1080.08 215.777 1079.82 216.884C1079.52 218.226 1078 219.597 1078.44 221.094C1078.73 222.042 1079.9 221.976 1080.69 222.138C1082.32 222.475 1084.81 222.92 1084.99 225.046C1085.25 228.159 1080.78 227.121 1080.77 229.723C1080.76 231.237 1081.54 232.21 1082.58 233.191C1083.43 233.993 1084.83 234.666 1084.45 236.139C1083.59 239.407 1078.46 236.817 1076.56 238.822C1075.2 240.264 1076.3 241.586 1077.26 242.795C1077.62 243.246 1078.33 244.105 1077.94 244.713C1076.97 246.19 1076.23 245.524 1075 245.065C1073.79 244.61 1072.24 244.396 1071.05 245.09C1068.79 246.416 1070.89 248.939 1069.94 250.595C1068.31 253.457 1065.03 249.533 1063.22 250.464C1062.47 250.852 1061.58 251.765 1061.65 252.654C1061.71 253.37 1062.42 254.35 1061.96 255.056C1060.82 256.797 1059.63 256.038 1058.46 255.102L1057.39 254.255C1056.86 253.879 1056.35 253.615 1055.85 253.68C1054.54 253.855 1054.49 255.368 1054.23 256.39C1053.97 257.347 1053.24 257.966 1052.32 258.279C1047.94 259.78 1050.08 254.322 1048.14 253.451C1045.15 252.107 1045.99 260.34 1042.04 258.278C1040.86 257.665 1040.92 252.328 1039.92 251.617C1038.79 250.811 1036.19 254.398 1034.16 252.985C1032.04 251.509 1036.44 247.917 1034.28 246.261C1032.37 244.798 1031.06 246.983 1029.06 246.785C1027.7 246.651 1026.77 245.731 1026.5 244.836C1025.87 242.728 1028.14 241.118 1027.03 238.943C1025.55 236.069 1021.31 238.464 1020.55 234.842C1019.96 232.019 1024.61 231.624 1023.81 228.95C1023.06 226.455 1018.05 227.298 1018.39 224.39C1018.47 223.714 1019.12 223.496 1019.63 223.215C1020.88 222.517 1022.87 222.428 1023.85 221.273C1025.38 219.461 1024.24 218.433 1023.04 216.919C1022.6 216.369 1021.51 215.287 1022.01 214.435C1022.88 212.928 1024.18 212.997 1025.32 213.126C1025.97 213.201 1027.84 213.819 1028.41 213.348Z" fill="#95D0D5" fill-opacity="0.5"/>
</svg>
