<svg width="650" height="668" viewBox="0 0 650 668" fill="none" xmlns="http://www.w3.org/2000/svg">
<path d="M465 389C498.689 389 526 361.466 526 327.5C526 293.534 498.689 266 465 266C431.311 266 404 293.534 404 327.5C404 361.466 431.311 389 465 389Z" fill="#393939"/>
<path d="M170.5 389C204.466 389 232 361.466 232 327.5C232 293.534 204.466 266 170.5 266C136.534 266 109 293.534 109 327.5C109 361.466 136.534 389 170.5 389Z" fill="#95D0D5"/>
<path d="M328 668C361.689 668 389 640.242 389 606C389 571.758 361.689 544 328 544C294.311 544 267 571.758 267 606C267 640.242 294.311 668 328 668Z" fill="#FD7E50"/>
<path d="M526 123C526 139.153 522.831 155.147 516.675 170.07C510.519 184.993 501.496 198.553 490.121 209.974C478.745 221.396 465.241 230.456 450.379 236.637C435.516 242.819 419.587 246 403.5 246L403.5 123L526 123Z" fill="#FD7E50"/>
<path d="M405 246C388.847 246 372.853 242.819 357.93 236.637C343.007 230.456 329.447 221.396 318.026 209.974C306.604 198.553 297.544 184.993 291.363 170.07C285.181 155.147 282 139.153 282 123L405 123L405 246Z" fill="#95D0D5"/>
<path d="M246 128C246 160.622 233.041 191.907 209.974 214.974C186.907 238.041 155.622 251 123 251L123 128H246Z" fill="#71357C"/>
<path d="M404 265.5C404 281.718 400.806 297.778 394.599 312.761C388.393 327.745 379.296 341.36 367.828 352.828C356.36 364.296 342.745 373.393 327.761 379.599C312.778 385.806 296.718 389 280.5 389L280.5 265.5H404Z" fill="#F35D5D"/>
<path d="M527 668C510.847 668 494.853 664.819 479.93 658.637C465.007 652.456 451.447 643.396 440.026 631.974C428.604 620.553 419.544 606.993 413.363 592.07C407.181 577.147 404 561.153 404 545L527 545L527 668Z" fill="#95D0D5"/>
<path d="M127 545C127 528.847 130.181 512.853 136.363 497.93C142.544 483.007 151.604 469.447 163.026 458.026C174.447 446.604 188.007 437.544 202.93 431.363C217.853 425.181 233.847 422 250 422L250 545L127 545Z" fill="#F35D5D"/>
<path d="M250 668C233.847 668 217.853 664.819 202.93 658.637C188.007 652.456 174.447 643.396 163.026 631.974C151.604 620.553 142.544 606.993 136.363 592.07C130.181 577.147 127 561.153 127 545L250 545L250 668Z" fill="#393939"/>
<path d="M526 408C526 424.153 522.831 440.147 516.675 455.07C510.519 469.993 501.496 483.553 490.121 494.974C478.745 506.396 465.241 515.456 450.379 521.637C435.516 527.819 419.587 531 403.5 531C387.413 531 371.484 527.819 356.621 521.637C341.759 515.456 328.255 506.396 316.879 494.974C305.504 483.553 296.481 469.993 290.325 455.07C284.169 440.147 281 424.153 281 408L403.5 408H526Z" fill="#71357C"/>
</svg>
