<svg width="664" height="705" viewBox="0 0 664 705" fill="none" xmlns="http://www.w3.org/2000/svg">
<path d="M509.952 368.616C540.491 368.616 565.248 343.859 565.248 313.32C565.248 282.781 540.491 258.024 509.952 258.024C479.413 258.024 454.656 282.781 454.656 313.32C454.656 343.859 479.413 368.616 509.952 368.616Z" fill="#393939"/>
<path d="M245.76 368.616C276.299 368.616 301.056 343.859 301.056 313.32C301.056 282.781 276.299 258.024 245.76 258.024C215.221 258.024 190.464 282.781 190.464 313.32C190.464 343.859 215.221 368.616 245.76 368.616Z" fill="#95D0D5"/>
<path d="M387.072 618.984C417.611 618.984 442.368 594.227 442.368 563.688C442.368 533.149 417.611 508.392 387.072 508.392C356.533 508.392 331.776 533.149 331.776 563.688C331.776 594.227 356.533 618.984 387.072 618.984Z" fill="#FD7E50"/>
<path d="M565.248 133.608C565.248 148.131 562.387 162.512 556.83 175.93C551.272 189.347 543.126 201.539 532.856 211.808C522.587 222.078 510.395 230.224 496.978 235.782C483.56 241.339 469.179 244.2 454.656 244.2L454.656 133.608H565.248Z" fill="#FD7E50"/>
<path d="M454.656 244.2C440.133 244.2 425.752 241.339 412.334 235.782C398.917 230.224 386.725 222.078 376.456 211.808C366.186 201.539 358.04 189.347 352.482 175.93C346.925 162.512 344.064 148.131 344.064 133.608L454.656 133.608L454.656 244.2Z" fill="#95D0D5"/>
<path d="M313.344 133.608C313.344 162.939 301.692 191.068 280.952 211.808C260.212 232.548 232.083 244.2 202.752 244.2L202.752 133.608L313.344 133.608Z" fill="#71357C"/>
<path d="M454.656 258.024C454.656 272.547 451.795 286.928 446.238 300.346C440.68 313.763 432.534 325.955 422.264 336.224C411.995 346.494 399.803 354.64 386.386 360.198C372.968 365.755 358.587 368.616 344.064 368.616L344.064 258.024H454.656Z" fill="#F35D5D"/>
<path d="M565.248 618.984C550.725 618.984 536.344 616.123 522.926 610.566C509.509 605.008 497.317 596.862 487.048 586.592C476.778 576.323 468.632 564.131 463.074 550.714C457.517 537.296 454.656 522.915 454.656 508.392L565.248 508.392L565.248 618.984Z" fill="#95D0D5"/>
<path d="M205.824 508.392C205.824 493.869 208.685 479.488 214.242 466.07C219.8 452.653 227.946 440.461 238.216 430.192C248.485 419.922 260.677 411.776 274.094 406.218C287.512 400.661 301.893 397.8 316.416 397.8L316.416 508.392L205.824 508.392Z" fill="#F35D5D"/>
<path d="M316.416 618.984C301.893 618.984 287.512 616.123 274.094 610.566C260.677 605.008 248.485 596.862 238.216 586.592C227.946 576.323 219.8 564.131 214.242 550.714C208.685 537.296 205.824 522.915 205.824 508.392L316.416 508.392L316.416 618.984Z" fill="#393939"/>
<path d="M565.248 385.512C565.248 400.035 562.387 414.416 556.83 427.834C551.272 441.251 543.126 453.443 532.856 463.712C522.587 473.982 510.395 482.128 496.978 487.686C483.56 493.243 469.179 496.104 454.656 496.104C440.133 496.104 425.752 493.243 412.334 487.686C398.917 482.128 386.725 473.982 376.456 463.712C366.186 453.443 358.04 441.251 352.482 427.834C346.925 414.416 344.064 400.035 344.064 385.512L454.656 385.512H565.248Z" fill="#71357C"/>
</svg>
