<svg width="153" height="43" viewBox="0 0 153 43" fill="none" xmlns="http://www.w3.org/2000/svg">
<circle cx="133" cy="20" r="20" fill="#96031A"/>
<path d="M1.896 36.192C1.49067 36.2133 1.18133 36.1067 0.968 35.872C0.733333 35.6373 0.616 35.3493 0.616 35.008C0.616 34.752 0.701333 34.5173 0.872 34.304C1.02133 34.0907 1.26667 33.9733 1.608 33.952L2.6 33.888C3.688 33.8027 4.52 33.4293 5.096 32.768C5.672 32.0853 5.96 31.1573 5.96 29.984V14.56C5.96 14.112 6.06667 13.7813 6.28 13.568C6.51467 13.3333 6.84533 13.216 7.272 13.216C7.69867 13.216 8.01867 13.3333 8.232 13.568C8.46667 13.7813 8.584 14.112 8.584 14.56V30.016C8.584 31.232 8.37067 32.288 7.944 33.184C7.51733 34.0587 6.87733 34.7413 6.024 35.232C5.192 35.7227 4.168 36.0107 2.952 36.096L1.896 36.192ZM20.271 36.288C18.7563 36.288 17.4443 35.9573 16.335 35.296C15.2257 34.6347 14.3617 33.7067 13.743 32.512C13.1457 31.296 12.847 29.8667 12.847 28.224C12.847 26.9867 13.0177 25.8773 13.359 24.896C13.7003 23.8933 14.2017 23.04 14.863 22.336C15.5243 21.632 16.303 21.0987 17.199 20.736C18.1163 20.352 19.1403 20.16 20.271 20.16C21.7857 20.16 23.0977 20.4907 24.207 21.152C25.3163 21.8133 26.1697 22.752 26.767 23.968C27.3857 25.1627 27.695 26.5813 27.695 28.224C27.695 29.4613 27.5243 30.5707 27.183 31.552C26.8417 32.5333 26.3403 33.3867 25.679 34.112C25.0177 34.816 24.2283 35.36 23.311 35.744C22.415 36.1067 21.4017 36.288 20.271 36.288ZM20.271 34.208C21.231 34.208 22.0737 33.9733 22.799 33.504C23.5243 33.0347 24.079 32.352 24.463 31.456C24.8683 30.56 25.071 29.4827 25.071 28.224C25.071 26.2827 24.6337 24.8 23.759 23.776C22.9057 22.752 21.743 22.24 20.271 22.24C19.2897 22.24 18.4363 22.4747 17.711 22.944C17.007 23.392 16.4523 24.064 16.047 24.96C15.663 25.8347 15.471 26.9227 15.471 28.224C15.471 30.144 15.9083 31.6267 16.783 32.672C17.6577 33.696 18.8203 34.208 20.271 34.208ZM39.4603 36.288C38.0523 36.288 36.8363 35.9253 35.8123 35.2C34.8096 34.4747 34.1376 33.504 33.7963 32.288L34.1483 31.936V34.88C34.1483 35.3067 34.0309 35.6373 33.7963 35.872C33.5829 36.1067 33.2736 36.224 32.8683 36.224C32.4416 36.224 32.1216 36.1067 31.9083 35.872C31.6949 35.6373 31.5883 35.3067 31.5883 34.88V14.528C31.5883 14.1013 31.6949 13.7813 31.9083 13.568C32.1216 13.3333 32.4416 13.216 32.8683 13.216C33.2736 13.216 33.5936 13.3333 33.8283 13.568C34.0629 13.7813 34.1803 14.1013 34.1803 14.528V24.064H33.7963C34.1589 22.8693 34.8416 21.92 35.8443 21.216C36.8469 20.512 38.0523 20.16 39.4603 20.16C40.8683 20.16 42.0843 20.4907 43.1083 21.152C44.1323 21.792 44.9216 22.72 45.4763 23.936C46.0523 25.1307 46.3403 26.56 46.3403 28.224C46.3403 29.8667 46.0523 31.296 45.4763 32.512C44.9216 33.7067 44.1216 34.6347 43.0763 35.296C42.0523 35.9573 40.8469 36.288 39.4603 36.288ZM38.9163 34.208C39.8976 34.208 40.7403 33.9733 41.4443 33.504C42.1696 33.0347 42.7243 32.352 43.1083 31.456C43.5136 30.56 43.7163 29.4827 43.7163 28.224C43.7163 26.2827 43.2789 24.8 42.4043 23.776C41.5509 22.752 40.3883 22.24 38.9163 22.24C37.9563 22.24 37.1136 22.4747 36.3883 22.944C35.6629 23.392 35.0976 24.064 34.6923 24.96C34.3083 25.8347 34.1163 26.9227 34.1163 28.224C34.1163 30.144 34.5536 31.6267 35.4283 32.672C36.3029 33.696 37.4656 34.208 38.9163 34.208ZM55.1405 36.288C54.0738 36.288 53.1138 36.0853 52.2605 35.68C51.4285 35.2533 50.7672 34.6773 50.2765 33.952C49.7858 33.2267 49.5405 32.416 49.5405 31.52C49.5405 30.368 49.8285 29.4613 50.4045 28.8C51.0018 28.1387 51.9725 27.6693 53.3165 27.392C54.6818 27.1147 56.5378 26.976 58.8845 26.976H60.3245V28.672H58.9165C57.1885 28.672 55.8232 28.7573 54.8205 28.928C53.8392 29.0773 53.1458 29.344 52.7405 29.728C52.3565 30.112 52.1645 30.656 52.1645 31.36C52.1645 32.2347 52.4632 32.9493 53.0605 33.504C53.6792 34.0587 54.5112 34.336 55.5565 34.336C56.4098 34.336 57.1565 34.1333 57.7965 33.728C58.4578 33.3227 58.9698 32.768 59.3325 32.064C59.7165 31.36 59.9085 30.5493 59.9085 29.632V25.984C59.9085 24.6613 59.6418 23.712 59.1085 23.136C58.5752 22.5387 57.7005 22.24 56.4845 22.24C55.7378 22.24 54.9912 22.336 54.2445 22.528C53.4978 22.72 52.7085 23.0293 51.8765 23.456C51.5778 23.6053 51.3218 23.6587 51.1085 23.616C50.8952 23.552 50.7245 23.4347 50.5965 23.264C50.4685 23.0933 50.3938 22.9013 50.3725 22.688C50.3512 22.4533 50.3938 22.2293 50.5005 22.016C50.6285 21.8027 50.8205 21.632 51.0765 21.504C52.0152 21.0347 52.9432 20.6933 53.8605 20.48C54.7778 20.2667 55.6525 20.16 56.4845 20.16C57.8285 20.16 58.9378 20.384 59.8125 20.832C60.6872 21.2587 61.3378 21.92 61.7645 22.816C62.1912 23.6907 62.4045 24.8213 62.4045 26.208V34.88C62.4045 35.3067 62.2978 35.6373 62.0845 35.872C61.8925 36.1067 61.6045 36.224 61.2205 36.224C60.8152 36.224 60.5058 36.1067 60.2925 35.872C60.0792 35.6373 59.9725 35.3067 59.9725 34.88V32.384H60.2605C60.0898 33.1947 59.7592 33.888 59.2685 34.464C58.7992 35.04 58.2125 35.488 57.5085 35.808C56.8045 36.128 56.0152 36.288 55.1405 36.288ZM71.9493 36.288C70.4133 36.288 69.2399 35.8187 68.4293 34.88C67.6186 33.9413 67.2133 32.5973 67.2133 30.848V14.528C67.2133 14.1013 67.3199 13.7813 67.5333 13.568C67.7466 13.3333 68.0666 13.216 68.4933 13.216C68.8986 13.216 69.2186 13.3333 69.4533 13.568C69.6879 13.7813 69.8053 14.1013 69.8053 14.528V30.656C69.8053 31.808 70.0293 32.672 70.4773 33.248C70.9466 33.8027 71.6293 34.08 72.5253 34.08C72.7173 34.08 72.8879 34.0693 73.0373 34.048C73.1866 34.0267 73.3359 34.016 73.4853 34.016C73.7199 33.9947 73.8799 34.048 73.9653 34.176C74.0719 34.304 74.1253 34.56 74.1253 34.944C74.1253 35.328 74.0399 35.616 73.8693 35.808C73.6986 36 73.4213 36.128 73.0373 36.192C72.8666 36.2133 72.6853 36.2347 72.4933 36.256C72.3013 36.2773 72.1199 36.288 71.9493 36.288ZM81.578 36.288C80.5113 36.288 79.5513 36.0853 78.698 35.68C77.866 35.2533 77.2047 34.6773 76.714 33.952C76.2233 33.2267 75.978 32.416 75.978 31.52C75.978 30.368 76.266 29.4613 76.842 28.8C77.4393 28.1387 78.41 27.6693 79.754 27.392C81.1193 27.1147 82.9753 26.976 85.322 26.976H86.762V28.672H85.354C83.626 28.672 82.2607 28.7573 81.258 28.928C80.2767 29.0773 79.5833 29.344 79.178 29.728C78.794 30.112 78.602 30.656 78.602 31.36C78.602 32.2347 78.9007 32.9493 79.498 33.504C80.1167 34.0587 80.9487 34.336 81.994 34.336C82.8473 34.336 83.594 34.1333 84.234 33.728C84.8953 33.3227 85.4073 32.768 85.77 32.064C86.154 31.36 86.346 30.5493 86.346 29.632V25.984C86.346 24.6613 86.0793 23.712 85.546 23.136C85.0127 22.5387 84.138 22.24 82.922 22.24C82.1753 22.24 81.4287 22.336 80.682 22.528C79.9353 22.72 79.146 23.0293 78.314 23.456C78.0153 23.6053 77.7593 23.6587 77.546 23.616C77.3327 23.552 77.162 23.4347 77.034 23.264C76.906 23.0933 76.8313 22.9013 76.81 22.688C76.7887 22.4533 76.8313 22.2293 76.938 22.016C77.066 21.8027 77.258 21.632 77.514 21.504C78.4527 21.0347 79.3807 20.6933 80.298 20.48C81.2153 20.2667 82.09 20.16 82.922 20.16C84.266 20.16 85.3753 20.384 86.25 20.832C87.1247 21.2587 87.7753 21.92 88.202 22.816C88.6287 23.6907 88.842 24.8213 88.842 26.208V34.88C88.842 35.3067 88.7353 35.6373 88.522 35.872C88.33 36.1067 88.042 36.224 87.658 36.224C87.2527 36.224 86.9433 36.1067 86.73 35.872C86.5167 35.6373 86.41 35.3067 86.41 34.88V32.384H86.698C86.5273 33.1947 86.1967 33.888 85.706 34.464C85.2367 35.04 84.65 35.488 83.946 35.808C83.242 36.128 82.4527 36.288 81.578 36.288ZM94.9308 36.224C94.5041 36.224 94.1841 36.1067 93.9708 35.872C93.7574 35.6373 93.6508 35.3067 93.6508 34.88V21.536C93.6508 21.1093 93.7574 20.7893 93.9708 20.576C94.1841 20.3413 94.4934 20.224 94.8988 20.224C95.3041 20.224 95.6134 20.3413 95.8268 20.576C96.0614 20.7893 96.1788 21.1093 96.1788 21.536V24.288L95.8268 23.904C96.2748 22.6667 97.0001 21.7387 98.0028 21.12C99.0268 20.48 100.2 20.16 101.523 20.16C102.76 20.16 103.784 20.384 104.595 20.832C105.427 21.28 106.045 21.9627 106.451 22.88C106.856 23.776 107.059 24.9173 107.059 26.304V34.88C107.059 35.3067 106.941 35.6373 106.707 35.872C106.493 36.1067 106.184 36.224 105.779 36.224C105.352 36.224 105.021 36.1067 104.787 35.872C104.573 35.6373 104.467 35.3067 104.467 34.88V26.464C104.467 25.0133 104.179 23.9573 103.603 23.296C103.048 22.6133 102.152 22.272 100.915 22.272C99.4854 22.272 98.3441 22.72 97.4908 23.616C96.6588 24.4907 96.2428 25.664 96.2428 27.136V34.88C96.2428 35.776 95.8054 36.224 94.9308 36.224ZM118.718 42.048C117.588 42.048 116.478 41.9093 115.39 41.632C114.324 41.376 113.353 40.96 112.478 40.384C112.222 40.2347 112.052 40.0533 111.966 39.84C111.902 39.6267 111.892 39.4133 111.934 39.2C111.977 39.008 112.073 38.8267 112.222 38.656C112.372 38.5067 112.542 38.4107 112.734 38.368C112.948 38.3253 113.161 38.3573 113.374 38.464C114.313 39.04 115.209 39.4347 116.062 39.648C116.916 39.8613 117.758 39.968 118.59 39.968C120.105 39.968 121.246 39.5627 122.014 38.752C122.804 37.9413 123.198 36.768 123.198 35.232V31.616H123.518C123.198 32.8533 122.516 33.8347 121.47 34.56C120.446 35.2853 119.241 35.648 117.854 35.648C116.425 35.648 115.188 35.328 114.142 34.688C113.097 34.0267 112.286 33.1093 111.71 31.936C111.156 30.7627 110.878 29.408 110.878 27.872C110.878 26.72 111.038 25.6747 111.358 24.736C111.678 23.776 112.137 22.9653 112.734 22.304C113.353 21.6213 114.089 21.0987 114.942 20.736C115.817 20.352 116.788 20.16 117.854 20.16C119.262 20.16 120.478 20.5227 121.502 21.248C122.526 21.952 123.188 22.912 123.486 24.128L123.166 24.512V21.536C123.166 21.1093 123.273 20.7893 123.486 20.576C123.721 20.3413 124.041 20.224 124.446 20.224C124.873 20.224 125.193 20.3413 125.406 20.576C125.62 20.7893 125.726 21.1093 125.726 21.536V34.88C125.726 37.248 125.129 39.0293 123.934 40.224C122.761 41.44 121.022 42.048 118.718 42.048ZM118.334 33.536C119.337 33.536 120.201 33.312 120.926 32.864C121.652 32.3947 122.206 31.7333 122.59 30.88C122.996 30.0267 123.198 29.024 123.198 27.872C123.198 26.144 122.761 24.7787 121.886 23.776C121.012 22.752 119.828 22.24 118.334 22.24C117.353 22.24 116.5 22.4747 115.774 22.944C115.049 23.392 114.484 24.0427 114.078 24.896C113.694 25.728 113.502 26.72 113.502 27.872C113.502 29.6 113.94 30.976 114.814 32C115.689 33.024 116.862 33.536 118.334 33.536Z" fill="black"/>
</svg>
