<svg width="153" height="43" viewBox="0 0 153 43" fill="none" xmlns="http://www.w3.org/2000/svg">
<circle cx="133" cy="20" r="20" fill="#96031A"/>
<path d="M1.896 36.192C1.49067 36.2133 1.18133 36.1067 0.968 35.872C0.733333 35.6373 0.616 35.3493 0.616 35.008C0.616 34.752 0.701333 34.5173 0.872 34.304C1.02133 34.0907 1.26667 33.9733 1.608 33.952L2.6 33.888C3.688 33.8027 4.52 33.4293 5.096 32.768C5.672 32.0853 5.96 31.1573 5.96 29.984V14.56C5.96 14.112 6.06667 13.7813 6.28 13.568C6.51467 13.3333 6.84533 13.216 7.272 13.216C7.69867 13.216 8.01867 13.3333 8.232 13.568C8.46667 13.7813 8.584 14.112 8.584 14.56V30.016C8.584 31.232 8.37067 32.288 7.944 33.184C7.51733 34.0587 6.87733 34.7413 6.024 35.232C5.192 35.7227 4.168 36.0107 2.952 36.096L1.896 36.192ZM20.271 36.288C18.7563 36.288 17.4443 35.9573 16.335 35.296C15.2257 34.6347 14.3617 33.7067 13.743 32.512C13.1457 31.296 12.847 29.8667 12.847 28.224C12.847 26.9867 13.0177 25.8773 13.359 24.896C13.7003 23.8933 14.2017 23.04 14.863 22.336C15.5243 21.632 16.303 21.0987 17.199 20.736C18.1163 20.352 19.1403 20.16 20.271 20.16C21.7857 20.16 23.0977 20.4907 24.207 21.152C25.3163 21.8133 26.1697 22.752 26.767 23.968C27.3857 25.1627 27.695 26.5813 27.695 28.224C27.695 29.4613 27.5243 30.5707 27.183 31.552C26.8417 32.5333 26.3403 33.3867 25.679 34.112C25.0177 34.816 24.2283 35.36 23.311 35.744C22.415 36.1067 21.4017 36.288 20.271 36.288ZM20.271 34.208C21.231 34.208 22.0737 33.9733 22.799 33.504C23.5243 33.0347 24.079 32.352 24.463 31.456C24.8683 30.56 25.071 29.4827 25.071 28.224C25.071 26.2827 24.6337 24.8 23.759 23.776C22.9057 22.752 21.743 22.24 20.271 22.24C19.2897 22.24 18.4363 22.4747 17.711 22.944C17.007 23.392 16.4523 24.064 16.047 24.96C15.663 25.8347 15.471 26.9227 15.471 28.224C15.471 30.144 15.9083 31.6267 16.783 32.672C17.6577 33.696 18.8203 34.208 20.271 34.208ZM39.4603 36.288C38.0523 36.288 36.8363 35.9253 35.8123 35.2C34.8096 34.4747 34.1376 33.504 33.7963 32.288L34.1483 31.936V34.88C34.1483 35.3067 34.0309 35.6373 33.7963 35.872C33.5829 36.1067 33.2736 36.224 32.8683 36.224C32.4416 36.224 32.1216 36.1067 31.9083 35.872C31.6949 35.6373 31.5883 35.3067 31.5883 34.88V14.528C31.5883 14.1013 31.6949 13.7813 31.9083 13.568C32.1216 13.3333 32.4416 13.216 32.8683 13.216C33.2736 13.216 33.5936 13.3333 33.8283 13.568C34.0629 13.7813 34.1803 14.1013 34.1803 14.528V24.064H33.7963C34.1589 22.8693 34.8416 21.92 35.8443 21.216C36.8469 20.512 38.0523 20.16 39.4603 20.16C40.8683 20.16 42.0843 20.4907 43.1083 21.152C44.1323 21.792 44.9216 22.72 45.4763 23.936C46.0523 25.1307 46.3403 26.56 46.3403 28.224C46.3403 29.8667 46.0523 31.296 45.4763 32.512C44.9216 33.7067 44.1216 34.6347 43.0763 35.296C42.0523 35.9573 40.8469 36.288 39.4603 36.288ZM38.9163 34.208C39.8976 34.208 40.7403 33.9733 41.4443 33.504C42.1696 33.0347 42.7243 32.352 43.1083 31.456C43.5136 30.56 43.7163 29.4827 43.7163 28.224C43.7163 26.2827 43.2789 24.8 42.4043 23.776C41.5509 22.752 40.3883 22.24 38.9163 22.24C37.9563 22.24 37.1136 22.4747 36.3883 22.944C35.6629 23.392 35.0976 24.064 34.6923 24.96C34.3083 25.8347 34.1163 26.9227 34.1163 28.224C34.1163 30.144 34.5536 31.6267 35.4283 32.672C36.3029 33.696 37.4656 34.208 38.9163 34.208ZM56.7085 36.288C55.1938 36.288 53.8818 35.9573 52.7725 35.296C51.6632 34.6347 50.7992 33.7067 50.1805 32.512C49.5832 31.296 49.2845 29.8667 49.2845 28.224C49.2845 26.9867 49.4552 25.8773 49.7965 24.896C50.1378 23.8933 50.6392 23.04 51.3005 22.336C51.9618 21.632 52.7405 21.0987 53.6365 20.736C54.5538 20.352 55.5778 20.16 56.7085 20.16C58.2232 20.16 59.5352 20.4907 60.6445 21.152C61.7538 21.8133 62.6072 22.752 63.2045 23.968C63.8232 25.1627 64.1325 26.5813 64.1325 28.224C64.1325 29.4613 63.9618 30.5707 63.6205 31.552C63.2792 32.5333 62.7778 33.3867 62.1165 34.112C61.4552 34.816 60.6658 35.36 59.7485 35.744C58.8525 36.1067 57.8392 36.288 56.7085 36.288ZM56.7085 34.208C57.6685 34.208 58.5112 33.9733 59.2365 33.504C59.9618 33.0347 60.5165 32.352 60.9005 31.456C61.3058 30.56 61.5085 29.4827 61.5085 28.224C61.5085 26.2827 61.0712 24.8 60.1965 23.776C59.3432 22.752 58.1805 22.24 56.7085 22.24C55.7272 22.24 54.8738 22.4747 54.1485 22.944C53.4445 23.392 52.8898 24.064 52.4845 24.96C52.1005 25.8347 51.9085 26.9227 51.9085 28.224C51.9085 30.144 52.3458 31.6267 53.2205 32.672C54.0952 33.696 55.2578 34.208 56.7085 34.208ZM72.7618 36.288C71.2258 36.288 70.0524 35.8187 69.2418 34.88C68.4311 33.9413 68.0258 32.5973 68.0258 30.848V14.528C68.0258 14.1013 68.1324 13.7813 68.3458 13.568C68.5591 13.3333 68.8791 13.216 69.3058 13.216C69.7111 13.216 70.0311 13.3333 70.2658 13.568C70.5004 13.7813 70.6178 14.1013 70.6178 14.528V30.656C70.6178 31.808 70.8418 32.672 71.2898 33.248C71.7591 33.8027 72.4418 34.08 73.3378 34.08C73.5298 34.08 73.7004 34.0693 73.8498 34.048C73.9991 34.0267 74.1484 34.016 74.2978 34.016C74.5324 33.9947 74.6924 34.048 74.7778 34.176C74.8844 34.304 74.9378 34.56 74.9378 34.944C74.9378 35.328 74.8524 35.616 74.6818 35.808C74.5111 36 74.2338 36.128 73.8498 36.192C73.6791 36.2133 73.4978 36.2347 73.3058 36.256C73.1138 36.2773 72.9324 36.288 72.7618 36.288ZM82.3905 36.288C81.3238 36.288 80.3638 36.0853 79.5105 35.68C78.6785 35.2533 78.0172 34.6773 77.5265 33.952C77.0358 33.2267 76.7905 32.416 76.7905 31.52C76.7905 30.368 77.0785 29.4613 77.6545 28.8C78.2518 28.1387 79.2225 27.6693 80.5665 27.392C81.9318 27.1147 83.7878 26.976 86.1345 26.976H87.5745V28.672H86.1665C84.4385 28.672 83.0732 28.7573 82.0705 28.928C81.0892 29.0773 80.3958 29.344 79.9905 29.728C79.6065 30.112 79.4145 30.656 79.4145 31.36C79.4145 32.2347 79.7132 32.9493 80.3105 33.504C80.9292 34.0587 81.7612 34.336 82.8065 34.336C83.6598 34.336 84.4065 34.1333 85.0465 33.728C85.7078 33.3227 86.2198 32.768 86.5825 32.064C86.9665 31.36 87.1585 30.5493 87.1585 29.632V25.984C87.1585 24.6613 86.8918 23.712 86.3585 23.136C85.8252 22.5387 84.9505 22.24 83.7345 22.24C82.9878 22.24 82.2412 22.336 81.4945 22.528C80.7478 22.72 79.9585 23.0293 79.1265 23.456C78.8278 23.6053 78.5718 23.6587 78.3585 23.616C78.1452 23.552 77.9745 23.4347 77.8465 23.264C77.7185 23.0933 77.6438 22.9013 77.6225 22.688C77.6012 22.4533 77.6438 22.2293 77.7505 22.016C77.8785 21.8027 78.0705 21.632 78.3265 21.504C79.2652 21.0347 80.1932 20.6933 81.1105 20.48C82.0278 20.2667 82.9025 20.16 83.7345 20.16C85.0785 20.16 86.1878 20.384 87.0625 20.832C87.9372 21.2587 88.5878 21.92 89.0145 22.816C89.4412 23.6907 89.6545 24.8213 89.6545 26.208V34.88C89.6545 35.3067 89.5478 35.6373 89.3345 35.872C89.1425 36.1067 88.8545 36.224 88.4705 36.224C88.0652 36.224 87.7558 36.1067 87.5425 35.872C87.3292 35.6373 87.2225 35.3067 87.2225 34.88V32.384H87.5105C87.3398 33.1947 87.0092 33.888 86.5185 34.464C86.0492 35.04 85.4625 35.488 84.7585 35.808C84.0545 36.128 83.2652 36.288 82.3905 36.288ZM95.7433 36.224C95.3166 36.224 94.9966 36.1067 94.7833 35.872C94.5699 35.6373 94.4633 35.3067 94.4633 34.88V21.536C94.4633 21.1093 94.5699 20.7893 94.7833 20.576C94.9966 20.3413 95.3059 20.224 95.7113 20.224C96.1166 20.224 96.4259 20.3413 96.6393 20.576C96.8739 20.7893 96.9913 21.1093 96.9913 21.536V24.288L96.6393 23.904C97.0873 22.6667 97.8126 21.7387 98.8153 21.12C99.8393 20.48 101.013 20.16 102.335 20.16C103.573 20.16 104.597 20.384 105.407 20.832C106.239 21.28 106.858 21.9627 107.263 22.88C107.669 23.776 107.871 24.9173 107.871 26.304V34.88C107.871 35.3067 107.754 35.6373 107.519 35.872C107.306 36.1067 106.997 36.224 106.591 36.224C106.165 36.224 105.834 36.1067 105.599 35.872C105.386 35.6373 105.279 35.3067 105.279 34.88V26.464C105.279 25.0133 104.991 23.9573 104.415 23.296C103.861 22.6133 102.965 22.272 101.727 22.272C100.298 22.272 99.1566 22.72 98.3033 23.616C97.4713 24.4907 97.0553 25.664 97.0553 27.136V34.88C97.0553 35.776 96.6179 36.224 95.7433 36.224ZM119.531 42.048C118.4 42.048 117.291 41.9093 116.203 41.632C115.136 41.376 114.165 40.96 113.291 40.384C113.035 40.2347 112.864 40.0533 112.779 39.84C112.715 39.6267 112.704 39.4133 112.747 39.2C112.789 39.008 112.885 38.8267 113.035 38.656C113.184 38.5067 113.355 38.4107 113.547 38.368C113.76 38.3253 113.973 38.3573 114.187 38.464C115.125 39.04 116.021 39.4347 116.875 39.648C117.728 39.8613 118.571 39.968 119.403 39.968C120.917 39.968 122.059 39.5627 122.827 38.752C123.616 37.9413 124.011 36.768 124.011 35.232V31.616H124.331C124.011 32.8533 123.328 33.8347 122.283 34.56C121.259 35.2853 120.053 35.648 118.667 35.648C117.237 35.648 116 35.328 114.955 34.688C113.909 34.0267 113.099 33.1093 112.523 31.936C111.968 30.7627 111.691 29.408 111.691 27.872C111.691 26.72 111.851 25.6747 112.171 24.736C112.491 23.776 112.949 22.9653 113.547 22.304C114.165 21.6213 114.901 21.0987 115.755 20.736C116.629 20.352 117.6 20.16 118.667 20.16C120.075 20.16 121.291 20.5227 122.315 21.248C123.339 21.952 124 22.912 124.299 24.128L123.979 24.512V21.536C123.979 21.1093 124.085 20.7893 124.299 20.576C124.533 20.3413 124.853 20.224 125.259 20.224C125.685 20.224 126.005 20.3413 126.219 20.576C126.432 20.7893 126.539 21.1093 126.539 21.536V34.88C126.539 37.248 125.941 39.0293 124.747 40.224C123.573 41.44 121.835 42.048 119.531 42.048ZM119.147 33.536C120.149 33.536 121.013 33.312 121.739 32.864C122.464 32.3947 123.019 31.7333 123.403 30.88C123.808 30.0267 124.011 29.024 124.011 27.872C124.011 26.144 123.573 24.7787 122.699 23.776C121.824 22.752 120.64 22.24 119.147 22.24C118.165 22.24 117.312 22.4747 116.587 22.944C115.861 23.392 115.296 24.0427 114.891 24.896C114.507 25.728 114.315 26.72 114.315 27.872C114.315 29.6 114.752 30.976 115.627 32C116.501 33.024 117.675 33.536 119.147 33.536Z" fill="black"/>
</svg>
