<svg width="118" height="43" viewBox="0 0 98 23" fill="none" xmlns="http://www.w3.org/2000/svg">
<path d="M1.43609 12.072C1.25209 12.08 1.10809 12.032 1.00409 11.928C0.900089 11.824 0.848089 11.692 0.848089 11.532C0.848089 11.412 0.888089 11.304 0.968089 11.208C1.04009 11.112 1.14809 11.06 1.29209 11.052L1.66409 11.028C2.04809 10.996 2.34009 10.868 2.54009 10.644C2.74009 10.412 2.84009 10.092 2.84009 9.684V4.08C2.84009 3.872 2.89209 3.716 2.99609 3.612C3.10009 3.508 3.25209 3.456 3.45209 3.456C3.65209 3.456 3.80409 3.508 3.90809 3.612C4.02009 3.716 4.07609 3.872 4.07609 4.08V9.684C4.07609 10.164 3.98809 10.576 3.81209 10.92C3.64409 11.256 3.39609 11.52 3.06809 11.712C2.74009 11.904 2.33209 12.016 1.84409 12.048L1.43609 12.072ZM11.6348 12.108C11.0428 12.108 10.5308 11.984 10.0988 11.736C9.67478 11.488 9.34278 11.136 9.10278 10.68C8.86278 10.224 8.74278 9.688 8.74278 9.072C8.74278 8.6 8.81078 8.18 8.94678 7.812C9.08278 7.444 9.27478 7.128 9.52278 6.864C9.77878 6.592 10.0828 6.388 10.4348 6.252C10.7948 6.108 11.1948 6.036 11.6348 6.036C12.2188 6.036 12.7228 6.16 13.1468 6.408C13.5788 6.656 13.9148 7.008 14.1548 7.464C14.3948 7.912 14.5148 8.448 14.5148 9.072C14.5148 9.536 14.4468 9.956 14.3108 10.332C14.1748 10.708 13.9788 11.028 13.7228 11.292C13.4748 11.556 13.1708 11.76 12.8108 11.904C12.4588 12.04 12.0668 12.108 11.6348 12.108ZM11.6348 11.172C11.9628 11.172 12.2508 11.092 12.4988 10.932C12.7468 10.772 12.9388 10.536 13.0748 10.224C13.2188 9.912 13.2908 9.528 13.2908 9.072C13.2908 8.384 13.1388 7.864 12.8348 7.512C12.5308 7.16 12.1308 6.984 11.6348 6.984C11.2988 6.984 11.0068 7.064 10.7588 7.224C10.5108 7.376 10.3148 7.608 10.1708 7.92C10.0348 8.232 9.96678 8.616 9.96678 9.072C9.96678 9.752 10.1188 10.272 10.4228 10.632C10.7268 10.992 11.1308 11.172 11.6348 11.172ZM22.1999 12.108C21.6879 12.108 21.2439 11.98 20.8679 11.724C20.4919 11.46 20.2399 11.112 20.1119 10.68L20.2439 10.464V11.472C20.2439 11.664 20.1919 11.816 20.0879 11.928C19.9839 12.032 19.8399 12.084 19.6559 12.084C19.4639 12.084 19.3159 12.032 19.2119 11.928C19.1079 11.816 19.0559 11.664 19.0559 11.472V4.068C19.0559 3.868 19.1079 3.716 19.2119 3.612C19.3159 3.508 19.4639 3.456 19.6559 3.456C19.8479 3.456 19.9959 3.508 20.0999 3.612C20.2119 3.716 20.2679 3.868 20.2679 4.068V7.428H20.1239C20.2519 7.004 20.5039 6.668 20.8799 6.42C21.2559 6.164 21.6959 6.036 22.1999 6.036C22.7279 6.036 23.1839 6.16 23.5679 6.408C23.9519 6.656 24.2479 7.004 24.4559 7.452C24.6719 7.9 24.7799 8.44 24.7799 9.072C24.7799 9.688 24.6719 10.228 24.4559 10.692C24.2479 11.148 23.9479 11.5 23.5559 11.748C23.1719 11.988 22.7199 12.108 22.1999 12.108ZM21.8999 11.172C22.2359 11.172 22.5279 11.092 22.7759 10.932C23.0239 10.772 23.2159 10.536 23.3519 10.224C23.4879 9.912 23.5559 9.528 23.5559 9.072C23.5559 8.384 23.4039 7.864 23.0999 7.512C22.8039 7.16 22.4039 6.984 21.8999 6.984C21.5719 6.984 21.2799 7.064 21.0239 7.224C20.7759 7.376 20.5839 7.608 20.4479 7.92C20.3119 8.232 20.2439 8.616 20.2439 9.072C20.2439 9.752 20.3959 10.272 20.6999 10.632C21.0039 10.992 21.4039 11.172 21.8999 11.172ZM31.1978 12.108C30.7898 12.108 30.4218 12.028 30.0938 11.868C29.7738 11.708 29.5218 11.492 29.3378 11.22C29.1538 10.948 29.0618 10.64 29.0618 10.296C29.0618 9.864 29.1698 9.524 29.3858 9.276C29.6098 9.02 29.9738 8.84 30.4778 8.736C30.9898 8.624 31.6778 8.568 32.5418 8.568H33.1058V9.312H32.5538C31.9778 9.312 31.5218 9.34 31.1858 9.396C30.8498 9.452 30.6098 9.548 30.4658 9.684C30.3298 9.812 30.2618 9.992 30.2618 10.224C30.2618 10.528 30.3658 10.776 30.5738 10.968C30.7818 11.152 31.0698 11.244 31.4378 11.244C31.7338 11.244 31.9938 11.176 32.2178 11.04C32.4418 10.896 32.6178 10.704 32.7458 10.464C32.8818 10.224 32.9498 9.948 32.9498 9.636V8.256C32.9498 7.8 32.8538 7.472 32.6618 7.272C32.4698 7.072 32.1538 6.972 31.7138 6.972C31.4578 6.972 31.1898 7.004 30.9098 7.068C30.6378 7.132 30.3538 7.24 30.0578 7.392C29.9218 7.456 29.8058 7.476 29.7098 7.452C29.6138 7.428 29.5378 7.376 29.4818 7.296C29.4258 7.208 29.3938 7.116 29.3858 7.02C29.3858 6.916 29.4098 6.816 29.4578 6.72C29.5138 6.624 29.6058 6.552 29.7338 6.504C30.0858 6.336 30.4338 6.216 30.7778 6.144C31.1218 6.072 31.4458 6.036 31.7498 6.036C32.2858 6.036 32.7258 6.12 33.0698 6.288C33.4218 6.456 33.6818 6.712 33.8498 7.056C34.0178 7.4 34.1018 7.844 34.1018 8.388V11.472C34.1018 11.664 34.0538 11.816 33.9578 11.928C33.8618 12.032 33.7218 12.084 33.5378 12.084C33.3618 12.084 33.2218 12.032 33.1178 11.928C33.0138 11.816 32.9618 11.664 32.9618 11.472V10.692H33.0698C33.0058 10.988 32.8858 11.244 32.7098 11.46C32.5418 11.668 32.3298 11.828 32.0738 11.94C31.8178 12.052 31.5258 12.108 31.1978 12.108ZM40.8351 12.108C40.2111 12.108 39.7391 11.928 39.4191 11.568C39.1071 11.2 38.9511 10.672 38.9511 9.984V4.068C38.9511 3.868 39.0031 3.716 39.1071 3.612C39.2111 3.508 39.3591 3.456 39.5511 3.456C39.7431 3.456 39.8911 3.508 39.9951 3.612C40.1071 3.716 40.1631 3.868 40.1631 4.068V9.912C40.1631 10.312 40.2431 10.612 40.4031 10.812C40.5711 11.004 40.8111 11.1 41.1231 11.1C41.1951 11.1 41.2591 11.1 41.3151 11.1C41.3711 11.092 41.4271 11.084 41.4831 11.076C41.5791 11.068 41.6471 11.096 41.6871 11.16C41.7271 11.216 41.7471 11.336 41.7471 11.52C41.7471 11.688 41.7111 11.82 41.6391 11.916C41.5671 12.004 41.4511 12.06 41.2911 12.084C41.2191 12.092 41.1431 12.096 41.0631 12.096C40.9831 12.104 40.9071 12.108 40.8351 12.108ZM47.6711 12.108C47.2631 12.108 46.8951 12.028 46.5671 11.868C46.2471 11.708 45.9951 11.492 45.8111 11.22C45.6271 10.948 45.5351 10.64 45.5351 10.296C45.5351 9.864 45.6431 9.524 45.8591 9.276C46.0831 9.02 46.4471 8.84 46.9511 8.736C47.4631 8.624 48.1511 8.568 49.0151 8.568H49.5791V9.312H49.0271C48.4511 9.312 47.9951 9.34 47.6591 9.396C47.3231 9.452 47.0831 9.548 46.9391 9.684C46.8031 9.812 46.7351 9.992 46.7351 10.224C46.7351 10.528 46.8391 10.776 47.0471 10.968C47.2551 11.152 47.5431 11.244 47.9111 11.244C48.2071 11.244 48.4671 11.176 48.6911 11.04C48.9151 10.896 49.0911 10.704 49.2191 10.464C49.3551 10.224 49.4231 9.948 49.4231 9.636V8.256C49.4231 7.8 49.3271 7.472 49.1351 7.272C48.9431 7.072 48.6271 6.972 48.1871 6.972C47.9311 6.972 47.6631 7.004 47.3831 7.068C47.1111 7.132 46.8271 7.24 46.5311 7.392C46.3951 7.456 46.2791 7.476 46.1831 7.452C46.0871 7.428 46.0111 7.376 45.9551 7.296C45.8991 7.208 45.8671 7.116 45.8591 7.02C45.8591 6.916 45.8831 6.816 45.9311 6.72C45.9871 6.624 46.0791 6.552 46.2071 6.504C46.5591 6.336 46.9071 6.216 47.2511 6.144C47.5951 6.072 47.9191 6.036 48.2231 6.036C48.7591 6.036 49.1991 6.12 49.5431 6.288C49.8951 6.456 50.1551 6.712 50.3231 7.056C50.4911 7.4 50.5751 7.844 50.5751 8.388V11.472C50.5751 11.664 50.5271 11.816 50.4311 11.928C50.3351 12.032 50.1951 12.084 50.0111 12.084C49.8351 12.084 49.6951 12.032 49.5911 11.928C49.4871 11.816 49.4351 11.664 49.4351 11.472V10.692H49.5431C49.4791 10.988 49.3591 11.244 49.1831 11.46C49.0151 11.668 48.8031 11.828 48.5471 11.94C48.2911 12.052 47.9991 12.108 47.6711 12.108ZM56.0244 12.084C55.8324 12.084 55.6844 12.032 55.5804 11.928C55.4764 11.816 55.4244 11.664 55.4244 11.472V6.672C55.4244 6.472 55.4764 6.32 55.5804 6.216C55.6844 6.112 55.8284 6.06 56.0124 6.06C56.2044 6.06 56.3484 6.112 56.4444 6.216C56.5484 6.32 56.6004 6.472 56.6004 6.672V7.608L56.4684 7.392C56.6444 6.944 56.9204 6.608 57.2964 6.384C57.6724 6.152 58.1044 6.036 58.5924 6.036C59.0564 6.036 59.4404 6.124 59.7444 6.3C60.0564 6.468 60.2884 6.728 60.4404 7.08C60.5924 7.424 60.6684 7.86 60.6684 8.388V11.472C60.6684 11.664 60.6164 11.816 60.5124 11.928C60.4084 12.032 60.2604 12.084 60.0684 12.084C59.8684 12.084 59.7164 12.032 59.6124 11.928C59.5084 11.816 59.4564 11.664 59.4564 11.472V8.46C59.4564 7.956 59.3564 7.588 59.1564 7.356C58.9644 7.124 58.6604 7.008 58.2444 7.008C57.7564 7.008 57.3644 7.16 57.0684 7.464C56.7804 7.768 56.6364 8.176 56.6364 8.688V11.472C56.6364 11.88 56.4324 12.084 56.0244 12.084ZM68.1704 14.268C67.7384 14.268 67.3184 14.224 66.9104 14.136C66.5104 14.048 66.1464 13.904 65.8184 13.704C65.6984 13.64 65.6184 13.56 65.5784 13.464C65.5384 13.376 65.5264 13.284 65.5424 13.188C65.5664 13.092 65.6104 13.008 65.6744 12.936C65.7384 12.864 65.8144 12.816 65.9024 12.792C65.9984 12.768 66.0984 12.784 66.2024 12.84C66.5544 13.032 66.8864 13.16 67.1984 13.224C67.5184 13.296 67.8144 13.332 68.0864 13.332C68.6464 13.332 69.0664 13.188 69.3464 12.9C69.6264 12.62 69.7664 12.204 69.7664 11.652V10.428H69.8744C69.7544 10.868 69.5024 11.216 69.1184 11.472C68.7344 11.728 68.2904 11.856 67.7864 11.856C67.2584 11.856 66.7984 11.736 66.4064 11.496C66.0144 11.248 65.7104 10.908 65.4944 10.476C65.2784 10.036 65.1704 9.524 65.1704 8.94C65.1704 8.5 65.2304 8.104 65.3504 7.752C65.4784 7.4 65.6544 7.096 65.8784 6.84C66.1104 6.584 66.3864 6.388 66.7064 6.252C67.0344 6.108 67.3944 6.036 67.7864 6.036C68.2984 6.036 68.7424 6.164 69.1184 6.42C69.5024 6.676 69.7504 7.024 69.8624 7.464L69.7424 7.668V6.672C69.7424 6.472 69.7944 6.32 69.8984 6.216C70.0104 6.112 70.1584 6.06 70.3424 6.06C70.5344 6.06 70.6824 6.112 70.7864 6.216C70.8904 6.32 70.9424 6.472 70.9424 6.672V11.508C70.9424 12.42 70.7064 13.108 70.2344 13.572C69.7624 14.036 69.0744 14.268 68.1704 14.268ZM68.0744 10.908C68.4264 10.908 68.7264 10.828 68.9744 10.668C69.2224 10.508 69.4144 10.28 69.5504 9.984C69.6864 9.688 69.7544 9.34 69.7544 8.94C69.7544 8.34 69.6024 7.864 69.2984 7.512C69.0024 7.16 68.5944 6.984 68.0744 6.984C67.7304 6.984 67.4344 7.064 67.1864 7.224C66.9384 7.384 66.7424 7.612 66.5984 7.908C66.4624 8.196 66.3944 8.54 66.3944 8.94C66.3944 9.548 66.5464 10.028 66.8504 10.38C67.1544 10.732 67.5624 10.908 68.0744 10.908Z" fill="black"/>
<line x1="1" y1="22" x2="62.0082" y2="22" stroke="#E2E2E2"/>
</svg>
